<?xml version="1.0" encoding="utf-8"?>
<!-- Generator: Adobe Illustrator 26.5.0, SVG Export Plug-In . SVG Version: 6.00 Build 0)  -->
<svg version="1.1" id="Layer_1" xmlns="http://www.w3.org/2000/svg" xmlns:xlink="http://www.w3.org/1999/xlink" x="0px" y="0px"
	 viewBox="0 0 1407.59 233.23" style="enable-background:new 0 0 1407.59 233.23;" xml:space="preserve">
<style type="text/css">
	.st0{fill:#EF3050;}
</style>
<g>
	<g>
		<g>
			<path class="st0" d="M339.57,233.23c-8.24,0-15.42-0.72-21.35-2.13c-7.04-1.25-13.07-3.28-17.93-6.03
				c-0.14-0.08-0.27-0.15-0.41-0.23c-0.33,2.11-2.16,3.73-4.36,3.73h-43.23c-2.44,0-4.42-1.98-4.42-4.42v-7.61
				c-2.91,2.8-6.14,5.47-9.67,7.99c-0.06,0.04-0.11,0.08-0.17,0.11c-7.33,4.74-17.18,7.14-29.28,7.14c-6.24,0-11.85-1.44-16.78-4.3
				c-0.78,0.68-1.79,1.09-2.9,1.09h-44.7c-2.44,0-4.42-1.98-4.42-4.42v-115.1c0-7.93-1.56-11.94-4.64-11.94
				c-3.67,0-6.52,1.28-8.96,4.01c-1.39,3.08-4.44,21.46-4.44,123.03c0,2.44-1.98,4.42-4.42,4.42H74.84c-2.44,0-4.42-1.98-4.42-4.42
				V121.9c0-7.9-0.28-13.56-0.82-16.8c-1.2-8-4.55-8-6.16-8c-1.2,0-4.83,0-8.79,7.28c-1.11,3.71-2.87,24.6-2.87,119.77
				c0,2.44-1.98,4.42-4.42,4.42H4.42c-2.44,0-4.42-1.98-4.42-4.42V59.38c0-2.44,1.98-4.42,4.42-4.42h40.61
				c2.44,0,4.42,1.98,4.42,4.42v7c2.48-2.46,5.27-4.9,8.37-7.29c0.03-0.03,0.07-0.05,0.1-0.08c7.17-5.21,15.32-7.86,24.22-7.86
				c8.27,0,15.7,2.23,22.08,6.62c0.27,0.19,0.52,0.41,0.75,0.65l6.43,7.01c1.47,1.58,2.91,3.38,4.31,5.37
				c3.61-4.46,7.82-8.5,12.57-12.06c0.1-0.07,0.2-0.15,0.31-0.21c3.46-2.17,7.6-3.91,12.28-5.19c4.87-1.27,10.25-1.91,16.06-1.91
				c6.05,0,11.5,1.44,16.28,4.3c0.72-0.5,1.59-0.79,2.53-0.79h45.57c2.44,0,4.42,1.98,4.42,4.42v101.37l0.29,13.05
				c0,12.62,4.48,12.62,6.39,12.62c3.13,0,7.1-0.86,9.97-7.55c0.02-0.04,0.03-0.07,0.05-0.11c1.14-2.96,3.1-22.47,3.1-119.39
				c0-2.44,1.98-4.42,4.42-4.42h45.58c2.44,0,4.42,1.98,4.42,4.42v0.45c10.23-6.72,21.47-10.12,33.5-10.12
				c14,0,25.81,2.09,35.1,6.22c1.44,0.65,2.82,1.34,4.16,2.06V4.43c0-2.44,1.98-4.42,4.42-4.42h45.57c2.44,0,4.42,1.98,4.42,4.42
				v59.6c3.09-3.02,6.37-5.49,9.82-7.38c6.12-3.5,15.06-5.22,27.25-5.22c6.36,0,12.11,1.66,17.18,4.95
				c0.81-0.89,1.97-1.45,3.27-1.45h42.07c2.44,0,4.42,1.98,4.42,4.42v9.46c2.87-3.28,5.68-5.86,8.47-7.77
				c5.78-4.46,13.65-7.67,23.39-9.53c1.29-0.25,2.63,0.1,3.64,0.93c1.01,0.84,1.6,2.09,1.6,3.4V58c8.14-5.34,16.51-8.04,24.97-8.04
				l20.22,0.29c0.17,0,0.33,0.01,0.5,0.04l11.39,1.46c11.91,1.52,21.77,7.52,29.3,17.84c0.9,1.21,1.77,2.49,2.6,3.86
				c2.36-3.56,5.03-6.72,7.97-9.46c0.03-0.03,0.06-0.05,0.09-0.08c10.52-9.26,21.53-13.96,32.71-13.96l20.22,0.29
				c0.17,0,0.33,0.01,0.5,0.04l11.39,1.46c8.56,1.09,16.05,4.49,22.39,10.15v-2.56c0-2.44,1.98-4.42,4.42-4.42h40.61
				c2.44,0,4.42,1.98,4.42,4.42v7c2.48-2.47,5.27-4.9,8.37-7.29c0.03-0.03,0.07-0.05,0.1-0.08c7.17-5.21,15.32-7.86,24.22-7.86
				c8.27,0,15.7,2.23,22.08,6.62c0.27,0.19,0.53,0.41,0.75,0.65l6.43,7.01c1.47,1.58,2.91,3.38,4.31,5.37
				c3.61-4.46,7.82-8.5,12.57-12.06c0.1-0.07,0.2-0.14,0.31-0.21c3.46-2.17,7.6-3.91,12.28-5.19c4.87-1.27,10.26-1.91,16.06-1.91
				c12.79,0,22.64,6.18,29.29,18.37c3.14,6,7.26,28.45,7.26,154.32c0,2.44-1.98,4.42-4.42,4.42h-44.7c-2.44,0-4.42-1.98-4.42-4.42
				v-115.1c0-7.93-1.56-11.94-4.64-11.94c-3.67,0-6.52,1.28-8.96,4.01c-1.39,3.08-4.44,21.46-4.44,123.03
				c0,2.44-1.98,4.42-4.42,4.42h-42.65c-2.44,0-4.42-1.98-4.42-4.42V121.9c0-7.9-0.27-13.56-0.82-16.8c-1.2-8-4.55-8-6.16-8
				c-1.2,0-4.83,0-8.79,7.28c-1.11,3.71-2.87,24.6-2.87,119.77c0,2.44-1.98,4.42-4.42,4.42h-42.94c-2.26,0-4.13-1.7-4.39-3.89
				c-6.15,5.5-13.35,8.27-21.52,8.27l-32.8-0.58c-0.18,0-0.36-0.02-0.53-0.04l-12.56-1.75c-9.16-1.34-17.39-6.72-24.51-16
				c-0.88-1.12-1.74-2.26-2.56-3.42c-7.81,14.47-18.49,21.8-31.83,21.8l-32.8-0.58c-0.18,0-0.36-0.02-0.53-0.04l-12.56-1.75
				c-9.16-1.34-17.39-6.72-24.51-16c-6.98-8.82-11.6-18.38-13.67-28.37c-0.02-0.08-0.03-0.17-0.05-0.26l-1.46-9.93
				c-0.01-0.09-0.02-0.19-0.03-0.29l-0.88-10.81l-0.88-13.21c0-0.07-0.01-0.15-0.01-0.22l-0.29-17.53c0-6.42,0.32-12.67,0.97-18.7
				c-1.03,1.57-2.05,3.56-3.02,5.95c-0.72,3.4-1.85,21.65-1.85,102.95c0,2.44-1.98,4.42-4.42,4.42h-79.46
				c-2.44,0-4.42-1.98-4.42-4.42V118.68c0-6.32-0.27-10.96-0.8-13.8c-0.01-0.05-0.02-0.1-0.03-0.16c-1.19-7.92-4.74-7.92-6.44-7.92
				c-2.51,0-6.16,0.74-9.04,7.15c-1.1,3.34-2.91,23.61-2.91,120.19c0,2.44-1.98,4.42-4.42,4.42h-45.57c-2.22,0-4.06-1.64-4.37-3.78
				C362.95,230.4,351.83,233.23,339.57,233.23z M295.52,212.15c0.97,0,1.94,0.32,2.73,0.95c2.06,1.62,4.15,3.02,6.38,4.27
				c4.02,2.28,9.15,3.98,15.26,5.05c0.09,0.02,0.18,0.04,0.27,0.06c5.28,1.27,11.81,1.92,19.41,1.92c13.32,0,25.05-3.81,34.85-11.33
				c1.33-1.02,3.13-1.2,4.64-0.46s2.46,2.28,2.46,3.96v3.16h36.74c0.05-97.03,1.89-114.57,3.48-118.93c0.03-0.09,0.07-0.17,0.1-0.26
				c4.58-10.39,11.88-12.57,17.19-12.57c4.79,0,13.13,2,15.17,15.37c0.63,3.42,0.94,8.44,0.94,15.34v101.04h70.63
				c0.04-83.02,1.26-97.43,2.19-100.98c0.05-0.18,0.1-0.36,0.17-0.53c4.23-10.56,9.83-15.92,16.66-15.92c0.07,0,0.14,0,0.21,0
				l0.29,0.01c1.26,0.06,2.44,0.66,3.23,1.64c0.79,0.98,1.13,2.26,0.92,3.5c-1.4,8.33-2.11,17.22-2.11,26.42l0.29,17.34l0.87,13.04
				l0.86,10.6l1.42,9.66c1.81,8.58,5.83,16.87,11.96,24.62c5.79,7.55,11.93,11.68,18.8,12.69l12.27,1.71l32.45,0.58
				c11.63,0,20.52-7.79,27.11-23.82c0.65-1.57,2.14-2.63,3.83-2.73c1.7-0.1,3.3,0.79,4.12,2.28c1.75,3.18,3.84,6.3,6.21,9.3
				c5.79,7.55,11.93,11.68,18.8,12.69l12.27,1.71l32.45,0.58c8.9,0,16.15-4.56,22.1-13.94c1.05-1.66,3.08-2.42,4.96-1.88
				c1.89,0.55,3.19,2.28,3.19,4.24v7.2h34.11c0.05-96.76,1.88-114.28,3.48-118.64c0.07-0.19,0.15-0.37,0.24-0.54
				c4.32-8.15,9.96-12.28,16.76-12.28c4.69,0,12.87,2.01,14.88,15.45c0.62,3.7,0.93,9.67,0.93,18.18v97.83h33.82
				c0.1-115.46,4.13-121.07,6.08-123.78c0.07-0.1,0.14-0.19,0.22-0.28c4.17-4.91,9.53-7.4,15.93-7.4c6.15,0,13.47,3.6,13.47,20.78
				v110.68h35.86c-0.09-116.51-3.92-141.35-6.22-145.74c-5.02-9.19-12.06-13.69-21.5-13.69c-5.05,0-9.69,0.54-13.78,1.61
				c-3.73,1.02-7.01,2.39-9.72,4.05c-5.72,4.31-10.52,9.4-14.29,15.14c-0.84,1.28-2.33,2.04-3.83,1.99
				c-1.54-0.05-2.94-0.89-3.7-2.23c-2.14-3.76-4.4-6.93-6.71-9.42l-6.09-6.65c-4.84-3.22-10.3-4.79-16.67-4.79
				c-7.07,0-13.28,2.01-18.97,6.13c-6.35,4.91-11.2,9.93-14.42,14.92c-1.06,1.65-3.08,2.4-4.96,1.85s-3.17-2.28-3.17-4.24V63.79
				h-31.77v10c0,1.94-1.26,3.65-3.11,4.22c-1.84,0.57-3.85-0.12-4.95-1.72l-0.36-0.53c-0.2-0.3-0.4-0.61-0.62-0.89
				c-6.15-8.43-13.77-13.11-23.31-14.32l-11.15-1.43l-19.91-0.29c-8.89,0-17.92,3.94-26.77,11.71c-3.98,3.71-7.38,8.43-10.11,14.04
				c-0.74,1.52-2.28,2.48-3.97,2.48c-0.02,0-0.04,0-0.06,0c-1.71-0.02-3.25-1.03-3.96-2.59c-1.65-3.64-3.52-6.88-5.55-9.6
				c-6.15-8.43-13.77-13.11-23.31-14.32l-11.15-1.43l-19.91-0.29c-8.76,0-17.68,3.85-26.43,11.44c-1.31,1.13-3.15,1.4-4.73,0.68
				c-1.57-0.72-2.58-2.29-2.58-4.02v-5.52c-5.97,1.61-10.83,3.86-14.49,6.71c-0.07,0.06-0.15,0.11-0.23,0.17
				c-4.36,2.96-9.16,8.44-14.27,16.29c-1.07,1.64-3.08,2.38-4.96,1.82c-1.87-0.56-3.16-2.28-3.16-4.23V63.8h-33.23v1.14
				c0,1.82-1.11,3.45-2.8,4.11c-1.69,0.67-3.61,0.23-4.85-1.1c-4.79-5.15-10.42-7.65-17.22-7.65c-10.46,0-18.18,1.38-22.93,4.09
				c-5.46,2.99-10.45,7.83-14.89,14.41c-1.09,1.61-3.09,2.32-4.95,1.75s-3.12-2.28-3.12-4.22V8.88h-36.74v57.14
				c0,1.67-0.94,3.2-2.44,3.95s-3.28,0.59-4.62-0.41c-2.76-2.07-5.98-3.94-9.55-5.56c-8.12-3.61-18.72-5.45-31.48-5.45
				c-12.3,0-23.23,3.97-33.41,12.13c-0.28,0.24-0.54,0.5-0.8,0.75c-0.23,0.23-0.47,0.45-0.71,0.68c-1.29,1.19-3.16,1.5-4.77,0.8
				c-1.61-0.7-2.64-2.29-2.64-4.04v-5.06h-36.74c-0.07,109.63-2.72,116.09-3.88,118.62c-4.57,10.61-12.34,12.84-18.06,12.84
				c-5.69,0-15.23-2.77-15.23-21.36l-0.29-13.05V63.81H180.1c-0.2,1.53-1.19,2.86-2.64,3.48c-1.62,0.7-3.51,0.36-4.79-0.86
				c-4.32-4.12-9.48-6.12-15.77-6.12c-5.05,0-9.69,0.54-13.78,1.61c-3.73,1.02-7.01,2.39-9.72,4.05
				c-5.72,4.31-10.52,9.4-14.29,15.14c-0.84,1.28-2.29,2.05-3.83,1.99c-1.54-0.05-2.94-0.89-3.7-2.23c-2.14-3.76-4.4-6.93-6.71-9.42
				l-6.09-6.65c-4.84-3.22-10.3-4.79-16.67-4.79c-7.07,0-13.27,2.01-18.97,6.13c-6.35,4.91-11.2,9.93-14.42,14.92
				c-1.06,1.65-3.08,2.4-4.96,1.85s-3.17-2.28-3.17-4.24V63.8H8.82v155.93h34.11c0.05-96.76,1.89-114.28,3.48-118.64
				c0.07-0.19,0.15-0.37,0.24-0.54c4.32-8.15,9.95-12.28,16.76-12.28c4.69,0,12.87,2.01,14.88,15.45c0.62,3.7,0.93,9.68,0.93,18.18
				v97.83h33.82c0.1-115.46,4.13-121.07,6.08-123.78c0.07-0.1,0.14-0.19,0.22-0.28c4.17-4.91,9.53-7.4,15.93-7.4
				c6.15,0,13.47,3.6,13.47,20.78v110.68h35.86c0.03-1.73,1.07-3.28,2.66-3.97c1.62-0.7,3.5-0.37,4.78,0.84
				c4.54,4.27,9.99,6.35,16.66,6.35c10.32,0,18.53-1.91,24.4-5.67c6.36-4.55,11.6-9.61,15.57-15.02c1.13-1.54,3.12-2.18,4.94-1.58
				c1.81,0.59,3.04,2.29,3.04,4.2v14.86h34.4v-3.16c0-1.69,0.97-3.23,2.49-3.97C294.21,212.3,294.87,212.15,295.52,212.15z
				 M335.19,201.39c-4.75,0-11.37-2.06-15.98-11.89c-0.08-0.17-0.15-0.35-0.21-0.53l-2.34-7.3c-0.09-0.3-0.16-0.6-0.19-0.91
				l-0.48-4.79h-20.48c-2.44,0-4.42-1.98-4.42-4.42v-31.42c0-1.76,1.05-3.36,2.67-4.06s3.5-0.36,4.78,0.85
				c1.11,1.05,2.11,1.98,3.2,2.87c1.96,1.59,9.55,6.2,34.58,19.07c14.61,7.88,21.39,14.96,21.39,22.33c0,8.95-4.08,13.46-7.54,15.67
				C345.77,199.87,340.72,201.39,335.19,201.39z M327.33,186c2.82,5.87,5.83,6.56,7.86,6.56c3.8,0,7.09-0.99,10.07-3.03
				c0.04-0.03,0.09-0.06,0.13-0.09c1.5-0.95,3.5-2.84,3.5-8.25c0-1.3-1.2-6.18-16.67-14.52c-19.05-9.79-27.9-14.75-32.28-17.46
				v17.92H320c2.27,0,4.17,1.72,4.39,3.98l0.83,8.3L327.33,186z M709.35,198.47c-4.07,0-9.85-1.53-14.29-8.84
				c-3.13-5.13-4.72-12.07-4.73-20.62l-0.58-18.34l-0.29-12.9c0-0.03,0-0.07,0-0.1v-22.2c0-0.23,0.02-0.46,0.05-0.69l1.75-11.1
				c0.02-0.1,0.03-0.19,0.05-0.29c3.54-15.64,11.92-18.92,18.33-18.92c6.62,0,15.1,3.8,18.05,21.85c0.57,2.04,1.27,6.34,1.27,18.79
				v28.04c0,0.1,0,0.2-0.01,0.3l-0.88,12.85c0,0.06-0.01,0.12-0.02,0.19l-1.46,13.15c-0.02,0.15-0.04,0.3-0.07,0.45
				c-0.88,4.06-3.56,16.41-12.42,17.75l-4.12,0.59C709.77,198.46,709.56,198.47,709.35,198.47z M698.28,137.62l0.29,12.8l0.59,18.37
				c0,0.05,0,0.09,0,0.14c0,6.94,1.16,12.36,3.44,16.1c2.38,3.91,4.78,4.54,6.47,4.6l3.75-0.53c1.01-0.15,3.24-2.58,5.02-10.66
				l1.43-12.82l0.86-12.61v-27.9c0-12.04-0.68-15.57-0.98-16.52c-0.06-0.2-0.11-0.4-0.14-0.6c-2.33-14.68-7.63-14.68-9.37-14.68
				c-1.9,0-6.95,0-9.68,11.9l-1.68,10.61V137.62z M604.56,198.47c-4.07,0-9.85-1.53-14.29-8.84c-3.13-5.13-4.72-12.07-4.73-20.62
				l-0.58-18.34l-0.29-12.9c0-0.03,0-0.07,0-0.1v-22.2c0-0.23,0.02-0.46,0.05-0.69l1.75-11.1c0.02-0.1,0.03-0.19,0.05-0.29
				c3.54-15.64,11.92-18.92,18.33-18.92c6.62,0,15.1,3.8,18.05,21.85c0.57,2.04,1.27,6.34,1.27,18.79v28.04c0,0.1,0,0.2-0.01,0.3
				l-0.88,12.85c0,0.06-0.01,0.12-0.02,0.19l-1.46,13.15c-0.02,0.15-0.04,0.3-0.07,0.45c-0.88,4.06-3.56,16.41-12.42,17.75
				l-4.12,0.59C604.98,198.46,604.77,198.47,604.56,198.47z M593.5,137.62l0.29,12.8l0.59,18.37c0,0.05,0,0.09,0,0.14
				c0,6.94,1.16,12.36,3.44,16.1c2.38,3.91,4.78,4.54,6.47,4.6l3.75-0.53c1.01-0.15,3.24-2.58,5.02-10.66l1.43-12.82l0.86-12.61
				v-27.9c0-12.04-0.68-15.57-0.98-16.52c-0.06-0.2-0.11-0.4-0.14-0.6c-2.33-14.68-7.63-14.68-9.37-14.68c-1.9,0-6.95,0-9.69,11.9
				l-1.68,10.61v21.8H593.5z M377.11,140.39c-0.88,0-1.76-0.26-2.51-0.79l-5.71-3.96l-41.48-20.3c-0.35-0.17-0.67-0.39-0.97-0.64
				c-5.65-4.94-8.52-10.29-8.52-15.89c0-5.75,2.27-10.67,6.57-14.21c3.93-3.2,8.9-4.81,14.79-4.81c4.79,0,11.31,1.88,15.16,10.85
				c0.02,0.06,0.05,0.11,0.07,0.17c1.35,3.54,2.18,7.78,2.49,12.64h20.11c2.44,0,4.42,1.98,4.42,4.42v28.1
				c0,1.64-0.91,3.15-2.37,3.91C378.52,140.23,377.81,140.39,377.11,140.39z M331.84,107.68l40.86,20v-15.39h-19.98
				c-2.44,0-4.42-1.98-4.42-4.42c0-5.62-0.68-10.27-2.02-13.83c-2.09-4.8-4.84-5.42-7.01-5.42c-3.86,0-6.87,0.92-9.19,2.81
				c-2.27,1.87-3.34,4.22-3.34,7.38C326.75,101.64,328.46,104.62,331.84,107.68z"/>
		</g>
		<g>
			<path class="st0" d="M1174.41,233.23c-6.8,0-13.07-1.59-18.72-4.75c-0.26,0.05-0.53,0.07-0.8,0.07h-47.91
				c-2.12,0-3.95-1.51-4.34-3.6l-1.5-7.93l-2.96,2.56c-0.2,0.18-0.42,0.33-0.65,0.47l-9.93,5.84c-0.15,0.09-0.31,0.17-0.48,0.24
				c-8.24,3.59-14.74,5.34-19.87,5.34c-0.08,0-0.16,0-0.24-0.01l-10.81-0.59c-0.17-0.01-0.35-0.03-0.52-0.06l-11.68-2.04
				c-7.97-1.45-14.83-8.04-21-20.17c-0.02-0.03-0.03-0.07-0.05-0.1c-2.1-4.39-3.78-9.75-5.02-15.93
				c-1.22-5.88-1.84-12.28-1.84-18.98c0-14.74,7.83-27.48,23.28-37.85c0.18-0.12,0.37-0.23,0.56-0.32l12.27-5.84
				c0.06-0.03,0.12-0.05,0.17-0.08l26.88-11.39c16.56-6.67,18.34-11.84,18.34-13.75c0-4.6-0.94-7.87-2.8-9.74
				c-1.88-1.88-4.68-2.79-8.56-2.79c-3.18,0-5.62,1.31-7.69,4.13c-2.05,3.54-3.08,8.04-3.08,13.36c0,2.44-1.98,4.42-4.42,4.42
				h-46.16c-1.15,0-2.2-0.44-2.99-1.16c-1.77,1.61-3.55,4.54-5.21,8.61c-0.72,3.4-1.85,21.65-1.85,102.95
				c0,2.44-1.98,4.42-4.42,4.42h-45.57c-2.44,0-4.42-1.98-4.42-4.42V59.38c0-2.44,1.98-4.42,4.42-4.42h42.07
				c2.44,0,4.42,1.98,4.42,4.42v9.46c2.87-3.28,5.68-5.86,8.47-7.77c5.78-4.46,13.65-7.67,23.39-9.53c1.29-0.25,2.63,0.1,3.64,0.93
				s1.6,2.09,1.6,3.4v0.91c8.8-4.9,18.62-7.38,29.32-7.38c13.03,0,23.12,0.61,29.98,1.82c6.55,1.23,13.72,3.58,21.36,6.98
				c5.84,2.21,10.63,5.33,14.29,9.32c7.44-11.25,17.38-16.95,29.54-16.95c11.35,0,19.88,1.8,26.09,5.52
				c2.7,1.38,5.56,3.51,8.64,6.45V4.45c0-2.44,1.98-4.42,4.42-4.42h34.89c0.17-0.02,0.34-0.03,0.52-0.03h46.16
				c2.44,0,4.42,1.98,4.42,4.42v38.3c0,2.44-1.98,4.42-4.42,4.42h-31.87v7.82h31.87c2.44,0,4.42,1.98,4.42,4.42v3.76
				c10.24-8.72,20.92-13.14,31.77-13.14l20.22,0.29c0.17,0,0.33,0.01,0.5,0.04l11.39,1.46c11.91,1.52,21.77,7.52,29.3,17.84
				c5.99,8.06,10.39,18.98,13.04,32.42c0.01,0.06,0.02,0.12,0.03,0.18l2.34,15.19c0.02,0.15,0.04,0.3,0.05,0.44l0.88,16.94
				c0.01,0.13,0.01,0.25,0,0.38l-0.58,16.65l-0.87,17.2v3.39c0,1.29-0.21,2.96-0.67,5.25l-1.45,7.56c-0.01,0.06-0.03,0.13-0.04,0.19
				c-7.51,31.52-21.34,47.5-41.11,47.5l-32.8-0.58c-0.18,0-0.36-0.02-0.53-0.04l-12.56-1.75c-6.84-1-13.16-4.26-18.89-9.71v3.29
				c0,2.44-1.98,4.42-4.42,4.42h-78.64c-2.44,0-4.42-1.98-4.42-4.42v-5.78c-2.94,2.97-6.14,5.56-9.57,7.75
				C1193.74,230.83,1184.77,233.23,1174.41,233.23z M1154.02,217.73c0.93,0,1.86,0.29,2.64,0.88c5.22,3.9,11.02,5.79,17.75,5.79
				c8.63,0,15.98-1.92,21.85-5.72c5.87-3.74,10.92-8.88,15.04-15.32c1.06-1.65,3.08-2.41,4.96-1.86s3.18,2.28,3.18,4.24v13.99h69.81
				v-10.92c0-1.92,1.24-3.62,3.07-4.21s3.83,0.08,4.94,1.64c0.71,1,1.44,1.97,2.17,2.89c5.79,7.55,11.93,11.68,18.8,12.69
				l12.27,1.71l32.45,0.58c15.25,0,25.88-13.29,32.41-40.62l1.44-7.5c0.44-2.21,0.51-3.17,0.51-3.55v-3.51c0-0.07,0-0.15,0.01-0.22
				l0.88-17.24l0.57-16.39l-0.85-16.53l-2.29-14.88c-2.39-12.1-6.25-21.79-11.47-28.81c-6.15-8.43-13.76-13.1-23.3-14.32
				l-11.15-1.43l-19.91-0.29c-8.9,0-17.92,3.94-26.77,11.71c-2.01,1.87-3.95,4.11-5.76,6.65c-1.11,1.56-3.11,2.23-4.94,1.64
				c-1.83-0.58-3.07-2.29-3.07-4.21V63.77h-31.87c-2.44,0-4.42-1.98-4.42-4.42V42.7c0-2.44,1.98-4.42,4.42-4.42h31.87V8.81h-41.22
				c-0.17,0.02-0.34,0.03-0.52,0.03h-30.99v65.11c0,1.87-1.18,3.54-2.94,4.16c-1.76,0.62-3.73,0.07-4.91-1.38
				c-6.75-8.32-11.19-11.58-13.74-12.85c-0.11-0.05-0.21-0.11-0.31-0.17c-4.73-2.87-12.02-4.33-21.66-4.33
				c-9.2,0-16.5,4.31-22.3,13.19c-0.06,0.09-0.12,0.18-0.19,0.26c-0.91,1.2-1.84,2.7-2.83,4.59c-0.75,1.44-2.22,2.35-3.84,2.37
				c-1.66,0.01-3.12-0.83-3.92-2.24c-2.86-5.05-7.44-8.7-13.99-11.16c-0.08-0.03-0.17-0.07-0.25-0.1
				c-7.06-3.16-13.61-5.31-19.46-6.41c-6.31-1.11-15.88-1.68-28.4-1.68c-11.69,0-22.14,3.44-31.07,10.22
				c-1.34,1.02-3.13,1.19-4.64,0.44c-1.5-0.75-2.45-2.28-2.45-3.96v-3.53c-5.97,1.61-10.83,3.86-14.49,6.71
				c-0.07,0.06-0.15,0.11-0.23,0.17c-4.36,2.96-9.16,8.44-14.27,16.29c-1.07,1.64-3.08,2.38-4.96,1.82
				c-1.87-0.56-3.16-2.28-3.16-4.23V63.76h-33.23v155.93h36.74c0.04-83.01,1.26-97.43,2.18-100.98c0.05-0.18,0.11-0.36,0.17-0.53
				c4.21-10.52,9.79-15.87,16.59-15.92c0.01,0,0.02,0,0.03,0c1.19,0,2.33,0.48,3.16,1.33c0.37,0.38,0.67,0.82,0.88,1.29h37.82
				c0.5-5.17,1.91-9.73,4.2-13.61c0.06-0.11,0.13-0.21,0.21-0.32c3.73-5.23,8.91-7.99,14.99-7.99c6.25,0,11.23,1.81,14.8,5.38
				c3.58,3.59,5.39,8.96,5.39,15.98c0,8.3-7.79,15.47-23.8,21.92l-26.72,11.37l-11.89,5.66c-12.85,8.71-19.1,18.63-19.1,30.33
				c0,6.1,0.56,11.89,1.66,17.22c1.09,5.47,2.54,10.12,4.31,13.84c4.69,9.2,9.75,14.54,14.65,15.42l11.4,2l10.42,0.57
				c3.79-0.03,9.17-1.54,15.99-4.49l9.35-5.5l8.46-7.33c1.19-1.03,2.85-1.35,4.34-0.83c1.49,0.52,2.59,1.8,2.89,3.35l2.24,11.88
				h39.67c0.26-0.4,0.59-0.77,0.99-1.07C1152.11,218.04,1153.07,217.73,1154.02,217.73z M1341.25,198.47
				c-4.07,0-9.85-1.53-14.29-8.84c-3.13-5.13-4.72-12.07-4.73-20.62l-0.58-18.34l-0.29-12.9v-22.3c0-0.23,0.02-0.46,0.05-0.69
				l1.75-11.1c0.01-0.1,0.03-0.19,0.05-0.29c3.54-15.64,11.92-18.92,18.33-18.92c11.94,0,16.41,11.81,18.05,21.85
				c0.57,2.04,1.27,6.34,1.27,18.79v28.04c0,0.1,0,0.2-0.01,0.3l-0.88,12.85c0,0.06-0.01,0.12-0.02,0.19l-1.46,13.15
				c-0.02,0.15-0.04,0.3-0.07,0.45c-0.88,4.06-3.56,16.41-12.42,17.75l-4.12,0.59C1341.67,198.46,1341.46,198.47,1341.25,198.47z
				 M1330.18,115.82v21.86l0.29,12.75l0.59,18.36c0,0.05,0,0.09,0,0.14c0,6.94,1.16,12.36,3.44,16.1c2.38,3.91,4.78,4.54,6.47,4.6
				l3.75-0.53c1.01-0.15,3.24-2.58,5.02-10.66l1.43-12.82l0.86-12.61v-27.9c0-12.04-0.68-15.57-0.98-16.52
				c-0.06-0.2-0.11-0.4-0.14-0.6c-2.33-14.68-7.63-14.68-9.37-14.68c-1.9,0-6.95,0-9.68,11.9L1330.18,115.82z M1084.79,197.89
				c-7.58,0-13.34-2.3-17.12-6.85c-0.07-0.08-0.14-0.17-0.2-0.26c-3.46-4.84-5.21-10.91-5.21-18.05c0-8.12,4.57-15.43,13.57-21.73
				c6.49-4.4,14.73-7.85,24.54-10.31c1.25-0.31,2.58-0.06,3.63,0.68c1.05,0.75,1.72,1.92,1.84,3.2l0.29,3.21
				c0.01,0.13,0.02,0.27,0.02,0.4v13.44c0,8.46-1.17,15.95-3.48,22.26c-0.07,0.18-0.15,0.36-0.24,0.54
				C1097.73,193.36,1091.79,197.89,1084.79,197.89z M1074.55,185.51c2.06,2.39,5.41,3.55,10.23,3.55c3.41,0,6.67-2.85,9.68-8.48
				c1.89-5.28,2.84-11.65,2.84-18.95v-10.92c-6.51,2.02-12.04,4.55-16.48,7.56c-6.54,4.58-9.75,9.32-9.75,14.46
				C1071.09,177.99,1072.22,182.17,1074.55,185.51z M1196.32,195.55c-8.3,0-13.98-4.85-15.99-13.66c-1.63-7.51-2.45-14.8-2.45-21.73
				c0-39.99,1.07-49.08,1.88-52.44c0.02-0.07,0.04-0.14,0.05-0.21c4.15-14.22,11.9-17.2,17.68-17.2c6.4,0,14.64,3,17.71,17.27
				c1.48,4.46,2.2,12.02,2.2,23.08v26.88c0,0.1,0,0.21-0.01,0.31l-0.88,12.56c-0.02,0.22-0.05,0.45-0.1,0.66l-2.04,9.06
				c-0.06,0.25-0.13,0.49-0.23,0.72C1209.09,193,1201.67,195.55,1196.32,195.55z M1188.32,109.88c-0.74,3.24-1.61,14.64-1.61,50.29
				c0,6.3,0.75,12.96,2.24,19.81c1.35,5.92,4.34,6.74,7.37,6.74c1.42,0,5.71,0,9.51-8.91l1.88-8.35l0.84-12.07v-26.72
				c0-12.64-0.98-18.1-1.8-20.45c-0.06-0.18-0.11-0.37-0.15-0.55c-2.19-10.51-7.05-10.51-9.12-10.51
				C1196,99.15,1191.49,99.15,1188.32,109.88z"/>
		</g>
	</g>
</g>
</svg>
